<mxfile host="65bd71144e">
    <diagram name="페이지-1" id="fRm4ZINmxPmVJy2ouT4q">
        <mxGraphModel dx="1123" dy="522" grid="1" gridSize="10" guides="1" tooltips="1" connect="1" arrows="1" fold="1" page="1" pageScale="1" pageWidth="1100" pageHeight="850" math="0" shadow="0">
            <root>
                <mxCell id="0"/>
                <mxCell id="1" parent="0"/>
                <mxCell id="sIU6AUuXKET5G-IMV9QI-1" value="&lt;div&gt;Home.jsp&lt;/div&gt;" style="swimlane;fontStyle=0;childLayout=stackLayout;horizontal=1;startSize=30;horizontalStack=0;resizeParent=1;resizeParentMax=0;resizeLast=0;collapsible=1;marginBottom=0;whiteSpace=wrap;html=1;" parent="1" vertex="1">
                    <mxGeometry x="160" y="350" width="140" height="60" as="geometry">
                        <mxRectangle x="430" y="270" width="90" height="30" as="alternateBounds"/>
                    </mxGeometry>
                </mxCell>
                <mxCell id="sIU6AUuXKET5G-IMV9QI-2" value="지도" style="text;strokeColor=none;fillColor=none;align=left;verticalAlign=middle;spacingLeft=4;spacingRight=4;overflow=hidden;points=[[0,0.5],[1,0.5]];portConstraint=eastwest;rotatable=0;whiteSpace=wrap;html=1;" parent="sIU6AUuXKET5G-IMV9QI-1" vertex="1">
                    <mxGeometry y="30" width="140" height="30" as="geometry"/>
                </mxCell>
                <mxCell id="sIU6AUuXKET5G-IMV9QI-36" value="&lt;div&gt;Maps.jsp&lt;/div&gt;" style="swimlane;whiteSpace=wrap;html=1;" parent="1" vertex="1">
                    <mxGeometry x="350" y="170" width="430" height="450" as="geometry"/>
                </mxCell>
                <mxCell id="sIU6AUuXKET5G-IMV9QI-50" style="edgeStyle=orthogonalEdgeStyle;rounded=0;orthogonalLoop=1;jettySize=auto;html=1;startArrow=classic;startFill=1;" parent="sIU6AUuXKET5G-IMV9QI-36" source="sIU6AUuXKET5G-IMV9QI-39" target="sIU6AUuXKET5G-IMV9QI-55" edge="1">
                    <mxGeometry relative="1" as="geometry">
                        <mxPoint x="160" y="175" as="targetPoint"/>
                        <Array as="points">
                            <mxPoint x="310" y="175"/>
                        </Array>
                    </mxGeometry>
                </mxCell>
                <mxCell id="sIU6AUuXKET5G-IMV9QI-39" value="&lt;div&gt;Kakao Maps&lt;/div&gt;&lt;div&gt;API&lt;br&gt;&lt;/div&gt;" style="ellipse;whiteSpace=wrap;html=1;aspect=fixed;" parent="sIU6AUuXKET5G-IMV9QI-36" vertex="1">
                    <mxGeometry x="270" y="40" width="80" height="80" as="geometry"/>
                </mxCell>
                <mxCell id="3" style="edgeStyle=orthogonalEdgeStyle;rounded=0;html=1;startArrow=none;startFill=0;" edge="1" parent="sIU6AUuXKET5G-IMV9QI-36" source="sIU6AUuXKET5G-IMV9QI-41" target="sIU6AUuXKET5G-IMV9QI-55">
                    <mxGeometry relative="1" as="geometry"/>
                </mxCell>
                <mxCell id="sIU6AUuXKET5G-IMV9QI-41" value="Search" style="swimlane;fontStyle=0;childLayout=stackLayout;horizontal=1;startSize=30;horizontalStack=0;resizeParent=1;resizeParentMax=0;resizeLast=0;collapsible=1;marginBottom=0;whiteSpace=wrap;html=1;" parent="sIU6AUuXKET5G-IMV9QI-36" vertex="1">
                    <mxGeometry x="30" y="40" width="140" height="60" as="geometry"/>
                </mxCell>
                <mxCell id="sIU6AUuXKET5G-IMV9QI-42" value="Name" style="text;strokeColor=none;fillColor=none;align=left;verticalAlign=middle;spacingLeft=4;spacingRight=4;overflow=hidden;points=[[0,0.5],[1,0.5]];portConstraint=eastwest;rotatable=0;whiteSpace=wrap;html=1;" parent="sIU6AUuXKET5G-IMV9QI-41" vertex="1">
                    <mxGeometry y="30" width="140" height="30" as="geometry"/>
                </mxCell>
                <mxCell id="sIU6AUuXKET5G-IMV9QI-49" style="edgeStyle=orthogonalEdgeStyle;rounded=0;orthogonalLoop=1;jettySize=auto;html=1;startArrow=classic;startFill=1;" parent="sIU6AUuXKET5G-IMV9QI-36" source="sIU6AUuXKET5G-IMV9QI-42" target="sIU6AUuXKET5G-IMV9QI-39" edge="1">
                    <mxGeometry relative="1" as="geometry">
                        <Array as="points">
                            <mxPoint x="190" y="80"/>
                            <mxPoint x="190" y="80"/>
                        </Array>
                    </mxGeometry>
                </mxCell>
                <mxCell id="sIU6AUuXKET5G-IMV9QI-55" value="SearchResults" style="swimlane;whiteSpace=wrap;html=1;" parent="sIU6AUuXKET5G-IMV9QI-36" vertex="1">
                    <mxGeometry x="25" y="140" width="150" height="295" as="geometry"/>
                </mxCell>
                <mxCell id="sIU6AUuXKET5G-IMV9QI-51" value="SearchResult" style="swimlane;fontStyle=0;childLayout=stackLayout;horizontal=1;startSize=30;horizontalStack=0;resizeParent=1;resizeParentMax=0;resizeLast=0;collapsible=1;marginBottom=0;whiteSpace=wrap;html=1;" parent="sIU6AUuXKET5G-IMV9QI-55" vertex="1">
                    <mxGeometry x="5" y="35" width="140" height="120" as="geometry"/>
                </mxCell>
                <mxCell id="sIU6AUuXKET5G-IMV9QI-52" value="Display" style="text;strokeColor=none;fillColor=none;align=left;verticalAlign=middle;spacingLeft=4;spacingRight=4;overflow=hidden;points=[[0,0.5],[1,0.5]];portConstraint=eastwest;rotatable=0;whiteSpace=wrap;html=1;" parent="sIU6AUuXKET5G-IMV9QI-51" vertex="1">
                    <mxGeometry y="30" width="140" height="30" as="geometry"/>
                </mxCell>
                <mxCell id="sIU6AUuXKET5G-IMV9QI-53" value="Place" style="text;strokeColor=default;fillColor=none;align=left;verticalAlign=middle;spacingLeft=4;spacingRight=4;overflow=hidden;points=[[0,0.5],[1,0.5]];portConstraint=eastwest;rotatable=0;whiteSpace=wrap;html=1;dashed=1;" parent="sIU6AUuXKET5G-IMV9QI-51" vertex="1">
                    <mxGeometry y="60" width="140" height="30" as="geometry"/>
                </mxCell>
                <mxCell id="sIU6AUuXKET5G-IMV9QI-54" value="ID" style="text;strokeColor=none;fillColor=none;align=left;verticalAlign=middle;spacingLeft=4;spacingRight=4;overflow=hidden;points=[[0,0.5],[1,0.5]];portConstraint=eastwest;rotatable=0;whiteSpace=wrap;html=1;" parent="sIU6AUuXKET5G-IMV9QI-51" vertex="1">
                    <mxGeometry y="90" width="140" height="30" as="geometry"/>
                </mxCell>
                <mxCell id="sIU6AUuXKET5G-IMV9QI-56" value="SearchResult" style="swimlane;fontStyle=0;childLayout=stackLayout;horizontal=1;startSize=30;horizontalStack=0;resizeParent=1;resizeParentMax=0;resizeLast=0;collapsible=1;marginBottom=0;whiteSpace=wrap;html=1;" parent="sIU6AUuXKET5G-IMV9QI-55" vertex="1">
                    <mxGeometry x="5" y="165" width="140" height="120" as="geometry"/>
                </mxCell>
                <mxCell id="sIU6AUuXKET5G-IMV9QI-57" value="Display" style="text;strokeColor=none;fillColor=none;align=left;verticalAlign=middle;spacingLeft=4;spacingRight=4;overflow=hidden;points=[[0,0.5],[1,0.5]];portConstraint=eastwest;rotatable=0;whiteSpace=wrap;html=1;" parent="sIU6AUuXKET5G-IMV9QI-56" vertex="1">
                    <mxGeometry y="30" width="140" height="30" as="geometry"/>
                </mxCell>
                <mxCell id="sIU6AUuXKET5G-IMV9QI-58" value="Place" style="text;strokeColor=default;fillColor=none;align=left;verticalAlign=middle;spacingLeft=4;spacingRight=4;overflow=hidden;points=[[0,0.5],[1,0.5]];portConstraint=eastwest;rotatable=0;whiteSpace=wrap;html=1;dashed=1;" parent="sIU6AUuXKET5G-IMV9QI-56" vertex="1">
                    <mxGeometry y="60" width="140" height="30" as="geometry"/>
                </mxCell>
                <mxCell id="sIU6AUuXKET5G-IMV9QI-59" value="ID" style="text;strokeColor=none;fillColor=none;align=left;verticalAlign=middle;spacingLeft=4;spacingRight=4;overflow=hidden;points=[[0,0.5],[1,0.5]];portConstraint=eastwest;rotatable=0;whiteSpace=wrap;html=1;" parent="sIU6AUuXKET5G-IMV9QI-56" vertex="1">
                    <mxGeometry y="90" width="140" height="30" as="geometry"/>
                </mxCell>
                <mxCell id="sIU6AUuXKET5G-IMV9QI-60" value="StoreDetails" style="swimlane;fontStyle=0;childLayout=stackLayout;horizontal=1;startSize=30;horizontalStack=0;resizeParent=1;resizeParentMax=0;resizeLast=0;collapsible=1;marginBottom=0;whiteSpace=wrap;html=1;" parent="sIU6AUuXKET5G-IMV9QI-36" vertex="1">
                    <mxGeometry x="250" y="200" width="140" height="120" as="geometry"/>
                </mxCell>
                <mxCell id="sIU6AUuXKET5G-IMV9QI-61" value="Display" style="text;strokeColor=none;fillColor=none;align=left;verticalAlign=middle;spacingLeft=4;spacingRight=4;overflow=hidden;points=[[0,0.5],[1,0.5]];portConstraint=eastwest;rotatable=0;whiteSpace=wrap;html=1;" parent="sIU6AUuXKET5G-IMV9QI-60" vertex="1">
                    <mxGeometry y="30" width="140" height="30" as="geometry"/>
                </mxCell>
                <mxCell id="sIU6AUuXKET5G-IMV9QI-62" value="Place" style="text;strokeColor=default;fillColor=none;align=left;verticalAlign=middle;spacingLeft=4;spacingRight=4;overflow=hidden;points=[[0,0.5],[1,0.5]];portConstraint=eastwest;rotatable=0;whiteSpace=wrap;html=1;dashed=1;" parent="sIU6AUuXKET5G-IMV9QI-60" vertex="1">
                    <mxGeometry y="60" width="140" height="30" as="geometry"/>
                </mxCell>
                <mxCell id="sIU6AUuXKET5G-IMV9QI-63" value="ID" style="text;strokeColor=none;fillColor=none;align=left;verticalAlign=middle;spacingLeft=4;spacingRight=4;overflow=hidden;points=[[0,0.5],[1,0.5]];portConstraint=eastwest;rotatable=0;whiteSpace=wrap;html=1;" parent="sIU6AUuXKET5G-IMV9QI-60" vertex="1">
                    <mxGeometry y="90" width="140" height="30" as="geometry"/>
                </mxCell>
                <mxCell id="sIU6AUuXKET5G-IMV9QI-64" style="edgeStyle=orthogonalEdgeStyle;rounded=0;orthogonalLoop=1;jettySize=auto;html=1;" parent="sIU6AUuXKET5G-IMV9QI-36" source="sIU6AUuXKET5G-IMV9QI-56" target="sIU6AUuXKET5G-IMV9QI-60" edge="1">
                    <mxGeometry relative="1" as="geometry"/>
                </mxCell>
                <mxCell id="2" style="edgeStyle=orthogonalEdgeStyle;html=1;rounded=0;startArrow=classic;startFill=1;" edge="1" parent="sIU6AUuXKET5G-IMV9QI-36" source="sIU6AUuXKET5G-IMV9QI-66" target="sIU6AUuXKET5G-IMV9QI-39">
                    <mxGeometry relative="1" as="geometry">
                        <Array as="points">
                            <mxPoint x="410" y="380"/>
                            <mxPoint x="410" y="80"/>
                        </Array>
                    </mxGeometry>
                </mxCell>
                <mxCell id="sIU6AUuXKET5G-IMV9QI-66" value="Store.jsp" style="swimlane;fontStyle=0;childLayout=stackLayout;horizontal=1;startSize=30;horizontalStack=0;resizeParent=1;resizeParentMax=0;resizeLast=0;collapsible=1;marginBottom=0;whiteSpace=wrap;html=1;" parent="sIU6AUuXKET5G-IMV9QI-36" vertex="1">
                    <mxGeometry x="250" y="350" width="140" height="60" as="geometry"/>
                </mxCell>
                <mxCell id="sIU6AUuXKET5G-IMV9QI-67" value="가게의 세부정보" style="text;strokeColor=none;fillColor=none;align=left;verticalAlign=middle;spacingLeft=4;spacingRight=4;overflow=hidden;points=[[0,0.5],[1,0.5]];portConstraint=eastwest;rotatable=0;whiteSpace=wrap;html=1;" parent="sIU6AUuXKET5G-IMV9QI-66" vertex="1">
                    <mxGeometry y="30" width="140" height="30" as="geometry"/>
                </mxCell>
                <mxCell id="sIU6AUuXKET5G-IMV9QI-70" style="edgeStyle=orthogonalEdgeStyle;rounded=0;orthogonalLoop=1;jettySize=auto;html=1;startArrow=classic;startFill=1;" parent="sIU6AUuXKET5G-IMV9QI-36" source="sIU6AUuXKET5G-IMV9QI-60" target="sIU6AUuXKET5G-IMV9QI-66" edge="1">
                    <mxGeometry relative="1" as="geometry">
                        <Array as="points">
                            <mxPoint x="320" y="330"/>
                            <mxPoint x="320" y="330"/>
                        </Array>
                    </mxGeometry>
                </mxCell>
                <mxCell id="sIU6AUuXKET5G-IMV9QI-40" style="edgeStyle=orthogonalEdgeStyle;rounded=0;orthogonalLoop=1;jettySize=auto;html=1;" parent="1" source="sIU6AUuXKET5G-IMV9QI-2" target="sIU6AUuXKET5G-IMV9QI-36" edge="1">
                    <mxGeometry relative="1" as="geometry"/>
                </mxCell>
            </root>
        </mxGraphModel>
    </diagram>
</mxfile>